<?xml version="1.0" encoding="UTF-8"?>
<svg xmlns="http://www.w3.org/2000/svg" width="1400" height="900" viewBox="0 0 1400 900">
  <defs>
    <linearGradient id="bg" x1="0" x2="1" y1="0" y2="1">
      <stop offset="0" stop-color="#22d3ee"/>
      <stop offset="1" stop-color="#050812"/>
    </linearGradient>
    <radialGradient id="glow" cx="50%" cy="28%" r="48%">
      <stop offset="0" stop-color="#f7c948" stop-opacity=".72"/>
      <stop offset=".55" stop-color="#f7c948" stop-opacity=".16"/>
      <stop offset="1" stop-color="#f7c948" stop-opacity="0"/>
    </radialGradient>
  </defs>
  <rect width="1400" height="900" fill="url(#bg)"/>
  <rect width="1400" height="900" fill="url(#glow)"/>
  <path d="M120 670c190-70 390-96 580-76s382 20 580-76" fill="none" stroke="#f7c948" stroke-width="10" stroke-opacity=".5"/>
  <g transform="translate(575 172)">
    <path d="M120 390h130l-20 70H140z" fill="#f7c948"/>
    <path d="M115 130h140v230c0 52-32 94-70 94s-70-42-70-94z" fill="#f7c948"/>
    <path d="M88 168c-64 12-84 90-32 128" fill="none" stroke="#f7c948" stroke-width="24" stroke-linecap="round"/>
    <path d="M282 168c64 12 84 90 32 128" fill="none" stroke="#f7c948" stroke-width="24" stroke-linecap="round"/>
  </g>
  <text x="92" y="735" fill="#fff" font-family="Inter, Arial, sans-serif" font-size="72" font-weight="900">Season in progress</text>
  <text x="96" y="800" fill="#dbe5ff" font-family="Inter, Arial, sans-serif" font-size="34" font-weight="700">2026 champion moment</text>
</svg>
